# Blender v2.77 (sub 0) OBJ File: ''
# www.blender.org
mtllib grass.mtl
o Plane
v -1.136912 0.996389 4.997082
v 0.063088 0.996389 4.997082
v 0.063088 -0.203611 4.997082
v -0.536912 0.996389 4.397082
v -0.536911 0.996389 5.597082
v -0.536912 -0.203611 5.597083
v -6.627285 0.996390 0.769423
v -5.427285 0.996390 0.769423
v -5.427285 -0.203610 0.769424
v -6.027285 0.996390 0.169423
v -6.027285 0.996390 1.369424
v -6.027285 -0.203610 1.369424
v 0.120805 0.996390 -0.066634
v 0.627331 0.996390 -1.154491
v 0.120805 -0.203610 -0.066634
v -0.169860 0.996389 -0.863825
v 0.917996 0.996390 -0.357300
v 0.917996 -0.203610 -0.357300
v 1.939363 0.996389 3.870557
v 2.736700 0.996389 2.973755
v 1.939363 -0.203611 3.870557
v 1.889630 0.996389 3.023487
v 2.786432 0.996389 3.820825
v 2.786432 -0.203611 3.820825
v -3.247929 0.996389 2.713487
v -2.374338 0.996390 1.890785
v -3.247929 -0.203610 2.713487
v -3.222484 0.996389 1.865341
v -2.399782 0.996389 2.738931
v -2.399782 -0.203610 2.738931
v 7.206303 0.996390 -1.656639
v 6.729870 0.996391 -2.758007
v 7.206303 -0.203610 -1.656640
v 6.417403 0.996389 -1.969108
v 7.518770 0.996390 -2.445540
v 6.417403 -0.203610 -1.969108
v -2.019891 0.996390 -5.511415
v -2.949056 0.996390 -6.270791
v -2.019891 -0.203609 -5.511416
v -2.864161 0.996390 -5.426521
v -2.104786 0.996391 -6.355686
v -2.864161 -0.203609 -5.426521
v -12.123328 0.996390 -0.181718
v -11.257655 0.996389 0.649311
v -11.257655 -0.203610 0.649312
v -11.274976 0.996390 -0.199040
v -12.106008 0.996389 0.666633
v -12.106008 -0.203610 0.666633
v -5.981559 0.996390 -7.548567
v -5.115887 0.996390 -6.717537
v -5.115886 -0.203609 -6.717537
v -5.133207 0.996390 -7.565888
v -5.964238 0.996390 -6.700215
v -5.964237 -0.203609 -6.700215
v -5.163255 0.996390 -3.917153
v -4.044483 0.996390 -4.351145
v -5.163255 -0.203609 -3.917153
v -4.820865 0.996390 -4.693535
v -4.386873 0.996390 -3.574763
v -4.386873 -0.203609 -3.574763
v -6.925926 0.996388 3.732436
v -5.924183 0.996389 3.071747
v -6.925926 -0.203611 3.732436
v -6.755400 0.996388 2.901220
v -6.094710 0.996388 3.902963
v -6.094710 -0.203611 3.902963
v -8.950217 0.996389 -1.153468
v -7.753965 0.996389 -1.248239
v -8.950217 -0.203610 -1.153467
v -8.399476 0.996389 -1.798979
v -8.304706 0.996389 -0.602727
v -8.304706 -0.203610 -0.602727
v -2.331797 0.996389 0.659996
v -1.912768 0.996390 -0.464466
v -2.331796 -0.203610 0.659996
v -2.684512 0.996389 -0.111750
v -1.560051 0.996389 0.307279
v -1.560051 -0.203610 0.307280
v -5.161397 0.996389 -0.531922
v -4.742368 0.996389 -1.656384
v -5.161397 -0.203610 -0.531922
v -5.514113 0.996389 -1.303667
v -4.389652 0.996389 -0.884638
v -4.389652 -0.203610 -0.884638
v 4.391148 0.996389 -0.926362
v 3.597642 0.996390 -0.026169
v 3.597642 -0.203610 -0.026169
v 3.544298 0.996390 -0.873018
v 4.444492 0.996390 -0.079513
v 4.444492 -0.203610 -0.079513
v 4.806449 0.996390 -3.812527
v 3.732761 0.996390 -3.276624
v 3.732761 -0.203609 -3.276623
v 4.001654 0.996390 -4.081419
v 4.537557 0.996390 -3.007731
v 4.537557 -0.203609 -3.007731
v 6.609624 0.996388 3.161592
v 7.186171 0.996389 4.214014
v 7.186171 -0.203611 4.214014
v 6.371686 0.996388 3.976076
v 7.424108 0.996389 3.399530
v 6.371686 -0.203611 3.976077
v -0.487433 0.996389 -1.980146
v -1.577091 0.996390 -1.477509
v -1.577091 -0.203610 -1.477509
v -1.283581 0.996390 -2.273657
v -0.780943 0.996390 -1.183998
v -0.780943 -0.203610 -1.183998
v 10.179677 0.996389 -0.517455
v 8.984852 0.996390 -0.406136
v 8.984852 -0.203610 -0.406136
v 9.526605 0.996390 -1.059208
v 9.637924 0.996390 0.135617
v 9.637924 -0.203610 0.135617
v 5.869502 0.996390 -5.422760
v 4.930470 0.996390 -6.169903
v 5.869500 -0.203609 -5.422760
v 5.773557 0.996390 -6.265847
v 5.026415 0.996390 -5.326817
v 5.026414 -0.203609 -5.326817
v 0.637121 0.996389 1.805795
v 1.213669 0.996388 2.858217
v 1.213668 -0.203611 2.858217
v 0.399184 0.996388 2.620279
v 1.451606 0.996389 2.043732
v 0.399184 -0.203610 2.620279
v 1.740329 0.996389 0.516482
v 1.336903 0.996390 1.646635
v 1.336903 -0.203610 1.646635
v 0.973540 0.996389 0.879845
v 2.103693 0.996389 1.283271
v 2.103693 -0.203610 1.283271
v 3.117721 0.996390 -2.883693
v 2.804810 0.996389 -1.725209
v 2.804810 -0.203610 -1.725209
v 2.382023 0.996390 -2.460907
v 3.540508 0.996389 -2.147995
v 3.540508 -0.203609 -2.147995
v 1.243791 0.996391 -8.964540
v 0.077800 0.996391 -9.248203
v 1.243791 -0.203608 -8.964542
v 0.802626 0.996391 -9.689367
v 0.518964 0.996391 -8.523376
v 0.518964 -0.203608 -8.523376
v 4.819168 0.996389 1.187724
v 4.506257 0.996389 2.346208
v 4.506256 -0.203610 2.346208
v 4.083470 0.996389 1.610510
v 5.241954 0.996389 1.923421
v 5.241954 -0.203610 1.923421
v 0.499905 0.996388 8.019167
v -0.210803 0.996388 8.986066
v -0.210803 -0.203612 8.986067
v -0.338898 0.996388 8.147264
v 0.628001 0.996388 8.857970
v 0.628001 -0.203612 8.857970
v -2.017782 0.996390 -3.719780
v -2.953915 0.996390 -2.969012
v -2.953916 -0.203609 -2.969012
v -2.861232 0.996390 -3.812463
v -2.110465 0.996390 -2.876329
v -2.110465 -0.203609 -2.876329
v 1.450961 0.996390 -5.045464
v 0.268660 0.996390 -4.840132
v 0.268659 -0.203609 -4.840132
v 0.757144 0.996390 -5.533949
v 0.962477 0.996390 -4.351646
v 0.962477 -0.203609 -4.351647
v -1.136912 -0.203611 4.997082
v -0.536912 -0.203611 4.397082
v -6.627285 -0.203610 0.769424
v -6.027285 -0.203610 0.169424
v 0.627331 -0.203610 -1.154491
v -0.169860 -0.203610 -0.863825
v 2.736700 -0.203611 2.973755
v 1.889630 -0.203611 3.023487
v -2.374338 -0.203610 1.890785
v -3.222484 -0.203610 1.865341
v 6.729870 -0.203609 -2.758007
v 7.518770 -0.203609 -2.445540
v -2.949056 -0.203609 -6.270791
v -2.104786 -0.203609 -6.355686
v -12.123328 -0.203610 -0.181718
v -11.274976 -0.203610 -0.199040
v -5.981559 -0.203609 -7.548567
v -5.133207 -0.203609 -7.565887
v -4.044483 -0.203609 -4.351144
v -4.820865 -0.203609 -4.693534
v -5.924183 -0.203611 3.071747
v -6.755400 -0.203611 2.901221
v -7.753965 -0.203610 -1.248238
v -8.399476 -0.203610 -1.798979
v -1.912768 -0.203610 -0.464466
v -2.684513 -0.203610 -0.111750
v -4.742368 -0.203610 -1.656384
v -5.514114 -0.203610 -1.303667
v 4.391148 -0.203610 -0.926363
v 3.544298 -0.203610 -0.873019
v 4.806449 -0.203609 -3.812527
v 4.001654 -0.203609 -4.081419
v 6.609623 -0.203611 3.161592
v 7.424108 -0.203611 3.399530
v -0.487433 -0.203610 -1.980146
v -1.283581 -0.203609 -2.273656
v 10.179677 -0.203610 -0.517455
v 9.526605 -0.203610 -1.059208
v 4.930470 -0.203609 -6.169901
v 5.773557 -0.203609 -6.265846
v 0.637121 -0.203610 1.805795
v 1.451606 -0.203610 2.043732
v 1.740329 -0.203610 0.516481
v 0.973539 -0.203610 0.879845
v 3.117721 -0.203609 -2.883694
v 2.382023 -0.203609 -2.460907
v 0.077800 -0.203608 -9.248203
v 0.802626 -0.203608 -9.689367
v 4.819168 -0.203610 1.187724
v 4.083470 -0.203610 1.610511
v 0.499905 -0.203611 8.019167
v -0.338899 -0.203611 8.147264
v -2.017782 -0.203609 -3.719780
v -2.861232 -0.203609 -3.812463
v 1.450961 -0.203609 -5.045464
v 0.757144 -0.203609 -5.533949
vt 0.0001 0.0001
vt 0.9999 0.0001
vt 0.9999 0.9999
vt 0.0001 0.0001
vt 0.9999 0.0001
vt 0.9999 0.9999
vt 0.0001 0.0001
vt 0.9999 0.0001
vt 0.9999 0.9999
vt 0.0001 0.0001
vt 0.9999 0.0001
vt 0.9999 0.9999
vt 0.0001 0.0001
vt 0.9999 0.0001
vt 0.0001 0.9999
vt 0.0001 0.0001
vt 0.9999 0.0001
vt 0.9999 0.9999
vt 0.0001 0.0001
vt 0.9999 0.0001
vt 0.0001 0.9999
vt 0.0001 0.0001
vt 0.9999 0.0001
vt 0.9999 0.9999
vt 0.0001 0.0001
vt 0.9999 0.0001
vt 0.0001 0.9999
vt 0.0001 0.0001
vt 0.9999 0.0001
vt 0.9999 0.9999
vt 0.0001 0.0001
vt 0.9999 0.0001
vt 0.0001 0.9999
vt 0.0001 0.0001
vt 0.9999 0.0001
vt 0.0001 0.9999
vt 0.0001 0.0001
vt 0.9999 0.0001
vt 0.0001 0.9999
vt 0.0001 0.0001
vt 0.9999 0.0001
vt 0.0001 0.9999
vt 0.0001 0.0001
vt 0.9999 0.0001
vt 0.9999 0.9999
vt 0.0001 0.0001
vt 0.9999 0.0001
vt 0.9999 0.9999
vt 0.0001 0.0001
vt 0.9999 0.0001
vt 0.9999 0.9999
vt 0.0001 0.0001
vt 0.9999 0.0001
vt 0.9999 0.9999
vt 0.0001 0.0001
vt 0.9999 0.0001
vt 0.0001 0.9999
vt 0.0001 0.0001
vt 0.9999 0.0001
vt 0.9999 0.9999
vt 0.0001 0.0001
vt 0.9999 0.0001
vt 0.0001 0.9999
vt 0.0001 0.0001
vt 0.9999 0.0001
vt 0.9999 0.9999
vt 0.0001 0.0001
vt 0.9999 0.0001
vt 0.0001 0.9999
vt 0.0001 0.0001
vt 0.9999 0.0001
vt 0.9999 0.9999
vt 0.0001 0.0001
vt 0.9999 0.0001
vt 0.0001 0.9999
vt 0.0001 0.0001
vt 0.9999 0.0001
vt 0.9999 0.9999
vt 0.0001 0.0001
vt 0.9999 0.0001
vt 0.0001 0.9999
vt 0.0001 0.0001
vt 0.9999 0.0001
vt 0.9999 0.9999
vt 0.0001 0.0001
vt 0.9999 0.0001
vt 0.9999 0.9999
vt 0.0001 0.0001
vt 0.9999 0.0001
vt 0.9999 0.9999
vt 0.0001 0.0001
vt 0.9999 0.0001
vt 0.9999 0.9999
vt 0.0001 0.0001
vt 0.9999 0.0001
vt 0.9999 0.9999
vt 0.0001 0.0001
vt 0.9999 0.0001
vt 0.9999 0.9999
vt 0.0001 0.0001
vt 0.9999 0.0001
vt 0.0001 0.9999
vt 0.0001 0.0001
vt 0.9999 0.0001
vt 0.9999 0.9999
vt 0.0001 0.0001
vt 0.9999 0.0001
vt 0.9999 0.9999
vt 0.0001 0.0001
vt 0.9999 0.0001
vt 0.9999 0.9999
vt 0.0001 0.0001
vt 0.9999 0.0001
vt 0.9999 0.9999
vt 0.0001 0.0001
vt 0.9999 0.0001
vt 0.0001 0.9999
vt 0.0001 0.0001
vt 0.9999 0.0001
vt 0.9999 0.9999
vt 0.0001 0.0001
vt 0.9999 0.0001
vt 0.9999 0.9999
vt 0.0001 0.0001
vt 0.9999 0.0001
vt 0.0001 0.9999
vt 0.0001 0.0001
vt 0.9999 0.0001
vt 0.9999 0.9999
vt 0.0001 0.0001
vt 0.9999 0.0001
vt 0.9999 0.9999
vt 0.0001 0.0001
vt 0.9999 0.0001
vt 0.9999 0.9999
vt 0.0001 0.0001
vt 0.9999 0.0001
vt 0.9999 0.9999
vt 0.0001 0.0001
vt 0.9999 0.0001
vt 0.0001 0.9999
vt 0.0001 0.0001
vt 0.9999 0.0001
vt 0.9999 0.9999
vt 0.0001 0.0001
vt 0.9999 0.0001
vt 0.9999 0.9999
vt 0.0001 0.0001
vt 0.9999 0.0001
vt 0.9999 0.9999
vt 0.0001 0.0001
vt 0.9999 0.0001
vt 0.9999 0.9999
vt 0.0001 0.0001
vt 0.9999 0.0001
vt 0.9999 0.9999
vt 0.0001 0.0001
vt 0.9999 0.0001
vt 0.9999 0.9999
vt 0.0001 0.0001
vt 0.9999 0.0001
vt 0.9999 0.9999
vt 0.0001 0.0001
vt 0.9999 0.0001
vt 0.9999 0.9999
vt 0.0001 0.0001
vt 0.9999 0.0001
vt 0.9999 0.9999
vt 0.0001 0.9999
vt 0.0001 0.9999
vt 0.0001 0.9999
vt 0.0001 0.9999
vt 0.9999 0.9999
vt 0.0001 0.9999
vt 0.9999 0.9999
vt 0.0001 0.9999
vt 0.9999 0.9999
vt 0.0001 0.9999
vt 0.9999 0.9999
vt 0.9999 0.9999
vt 0.9999 0.9999
vt 0.9999 0.9999
vt 0.0001 0.9999
vt 0.0001 0.9999
vt 0.0001 0.9999
vt 0.0001 0.9999
vt 0.9999 0.9999
vt 0.0001 0.9999
vt 0.9999 0.9999
vt 0.0001 0.9999
vt 0.9999 0.9999
vt 0.0001 0.9999
vt 0.9999 0.9999
vt 0.0001 0.9999
vt 0.9999 0.9999
vt 0.0001 0.9999
vt 0.0001 0.9999
vt 0.0001 0.9999
vt 0.0001 0.9999
vt 0.0001 0.9999
vt 0.0001 0.9999
vt 0.9999 0.9999
vt 0.0001 0.9999
vt 0.0001 0.9999
vt 0.0001 0.9999
vt 0.0001 0.9999
vt 0.9999 0.9999
vt 0.0001 0.9999
vt 0.0001 0.9999
vt 0.9999 0.9999
vt 0.0001 0.9999
vt 0.0001 0.9999
vt 0.0001 0.9999
vt 0.0001 0.9999
vt 0.9999 0.9999
vt 0.0001 0.9999
vt 0.0001 0.9999
vt 0.0001 0.9999
vt 0.0001 0.9999
vt 0.0001 0.9999
vt 0.0001 0.9999
vt 0.0001 0.9999
vt 0.0001 0.9999
vt 0.0001 0.9999
vn 0.0000 0.0000 -1.0000
vn 1.0000 -0.0000 -0.0000
vn -0.9065 0.0000 -0.4221
vn 0.4221 0.0000 -0.9065
vn -0.7473 0.0000 -0.6644
vn 0.6644 0.0000 -0.7473
vn -0.6856 0.0000 -0.7280
vn 0.7280 0.0000 -0.6856
vn -0.9178 -0.0000 0.3970
vn -0.3970 0.0000 -0.9178
vn -0.6328 -0.0000 0.7743
vn -0.7743 0.0000 -0.6328
vn 0.6925 -0.0000 -0.7214
vn 0.7214 -0.0000 0.6925
vn -0.3617 0.0000 -0.9323
vn 0.9323 -0.0000 -0.3617
vn -0.5506 -0.0000 -0.8348
vn 0.8348 -0.0000 -0.5506
vn -0.0790 -0.0000 -0.9969
vn 0.9969 -0.0000 -0.0790
vn -0.9371 -0.0000 -0.3492
vn 0.3492 -0.0000 -0.9371
vn 0.7502 -0.0000 0.6613
vn 0.6613 0.0000 -0.7502
vn 0.4466 0.0000 0.8947
vn 0.8947 -0.0000 -0.4466
vn 0.8770 -0.0000 -0.4805
vn -0.4805 -0.0000 -0.8770
vn 0.4189 -0.0000 0.9080
vn 0.9080 -0.0000 -0.4189
vn 0.0928 -0.0000 0.9957
vn 0.9957 0.0000 -0.0928
vn -0.6226 0.0000 0.7825
vn 0.7825 -0.0000 0.6226
vn 0.9418 -0.0000 0.3362
vn 0.3362 0.0000 -0.9418
vn 0.9654 -0.0000 0.2608
vn 0.2608 0.0000 -0.9654
vn -0.2364 -0.0000 0.9717
vn 0.9717 0.0000 0.2364
vn 0.8057 0.0000 0.5923
vn 0.8058 0.0000 0.5923
vn 0.5923 -0.0000 -0.8057
vn 0.6256 -0.0000 0.7801
vn 0.7801 0.0000 -0.6256
vn 0.1711 -0.0000 0.9853
vn 0.9853 0.0000 -0.1711
vn 0.5923 -0.0000 -0.8058
usemtl None
s 1
f 1/1/1 2/2/1 3/3/1
f 4/4/2 5/5/2 6/6/2
f 7/7/1 8/8/1 9/9/1
f 10/10/2 11/11/2 12/12/2
f 13/13/3 14/14/3 15/15/3
f 16/16/4 17/17/4 18/18/4
f 19/19/5 20/20/5 21/21/5
f 22/22/6 23/23/6 24/24/6
f 25/25/7 26/26/7 27/27/7
f 28/28/8 29/29/8 30/30/8
f 31/31/9 32/32/9 33/33/9
f 34/34/10 35/35/10 36/36/10
f 37/37/11 38/38/11 39/39/11
f 40/40/12 41/41/12 42/42/12
f 43/43/13 44/44/13 45/45/13
f 46/46/14 47/47/14 48/48/14
f 49/49/13 50/50/13 51/51/13
f 52/52/14 53/53/14 54/54/14
f 55/55/15 56/56/15 57/57/15
f 58/58/16 59/59/16 60/60/16
f 61/61/17 62/62/17 63/63/17
f 64/64/18 65/65/18 66/66/18
f 67/67/19 68/68/19 69/69/19
f 70/70/20 71/71/20 72/72/20
f 73/73/21 74/74/21 75/75/21
f 76/76/22 77/77/22 78/78/22
f 79/79/21 80/80/21 81/81/21
f 82/82/22 83/83/22 84/84/22
f 85/85/23 86/86/23 87/87/23
f 88/88/24 89/89/24 90/90/24
f 91/91/25 92/92/25 93/93/25
f 94/94/26 95/95/26 96/96/26
f 97/97/27 98/98/27 99/99/27
f 100/100/28 101/101/28 102/102/28
f 103/103/29 104/104/29 105/105/29
f 106/106/30 107/107/30 108/108/30
f 109/109/31 110/110/31 111/111/31
f 112/112/32 113/113/32 114/114/32
f 115/115/33 116/116/33 117/117/33
f 118/118/34 119/119/34 120/120/34
f 121/121/27 122/122/27 123/123/27
f 124/124/28 125/125/28 126/126/28
f 127/127/35 128/128/35 129/129/35
f 130/130/36 131/131/36 132/132/36
f 133/133/37 134/134/37 135/135/37
f 136/136/38 137/137/38 138/138/38
f 139/139/39 140/140/39 141/141/39
f 142/142/40 143/143/40 144/144/40
f 145/145/37 146/146/37 147/147/37
f 148/148/38 149/149/38 150/150/38
f 151/151/41 152/152/42 153/153/41
f 154/154/43 155/155/43 156/156/43
f 157/157/44 158/158/44 159/159/44
f 160/160/45 161/161/45 162/162/45
f 163/163/46 164/164/46 165/165/46
f 166/166/47 167/167/47 168/168/47
f 169/169/1 1/1/1 3/3/1
f 170/170/2 4/4/2 6/6/2
f 171/171/1 7/7/1 9/9/1
f 172/172/2 10/10/2 12/12/2
f 14/14/3 173/173/3 15/15/3
f 174/174/4 16/16/4 18/18/4
f 20/20/5 175/175/5 21/21/5
f 176/176/6 22/22/6 24/24/6
f 26/26/7 177/177/7 27/27/7
f 178/178/8 28/28/8 30/30/8
f 32/32/9 179/179/9 33/33/9
f 35/35/10 180/180/10 36/36/10
f 38/38/11 181/181/11 39/39/11
f 41/41/12 182/182/12 42/42/12
f 183/183/13 43/43/13 45/45/13
f 184/184/14 46/46/14 48/48/14
f 185/185/13 49/49/13 51/51/13
f 186/186/14 52/52/14 54/54/14
f 56/56/15 187/187/15 57/57/15
f 188/188/16 58/58/16 60/60/16
f 62/62/17 189/189/17 63/63/17
f 190/190/18 64/64/18 66/66/18
f 68/68/19 191/191/19 69/69/19
f 192/192/20 70/70/20 72/72/20
f 74/74/21 193/193/21 75/75/21
f 194/194/22 76/76/22 78/78/22
f 80/80/21 195/195/21 81/81/21
f 196/196/22 82/82/22 84/84/22
f 197/197/23 85/85/23 87/87/23
f 198/198/24 88/88/24 90/90/24
f 199/199/25 91/91/25 93/93/25
f 200/200/26 94/94/26 96/96/26
f 201/201/27 97/97/27 99/99/27
f 101/101/28 202/202/28 102/102/28
f 203/203/29 103/103/29 105/105/29
f 204/204/30 106/106/30 108/108/30
f 205/205/31 109/109/31 111/111/31
f 206/206/32 112/112/32 114/114/32
f 116/116/33 207/207/33 117/117/33
f 208/208/34 118/118/34 120/120/34
f 209/209/27 121/121/27 123/123/27
f 125/125/28 210/210/28 126/126/28
f 211/211/35 127/127/35 129/129/35
f 212/212/36 130/130/36 132/132/36
f 213/213/37 133/133/37 135/135/37
f 214/214/38 136/136/38 138/138/38
f 140/140/39 215/215/39 141/141/39
f 216/216/40 142/142/40 144/144/40
f 217/217/37 145/145/37 147/147/37
f 218/218/38 148/148/38 150/150/38
f 219/219/41 151/151/41 153/153/41
f 220/220/48 154/154/43 156/156/43
f 221/221/44 157/157/44 159/159/44
f 222/222/45 160/160/45 162/162/45
f 223/223/46 163/163/46 165/165/46
f 224/224/47 166/166/47 168/168/47
